PathFileType	4	(X/Y/Z)	Kaydara	
DataRate	CameraRate	NumFrames	NumMarkers	Units	OrigDataRate	OrigDataStartFrame	OrigNumFrames	
240.00	240.00	4	72	mm	240.00	267	355	
Frame#	Time	Hips			RightUpLeg			RightLeg			RightFoot			RightFoot_End			LeftUpLeg			LeftLeg			LeftFoot			LeftFoot_End			Spine			Spine1			Spine2			Spine3			Neck			Head			Head_End			RightShoulder			RightArm			RightForeArm			RightHand			RightHandThumb1			RightHandThumb2			RightHandThumb3			RightHandThumb3_End			RightInHandIndex			RightHandIndex1			RightHandIndex2			RightHandIndex3			RightHandIndex3_End			RightInHandMiddle			RightHandMiddle1			RightHandMiddle2			RightHandMiddle3			RightHandMiddle3_End			RightInHandRing			RightHandRing1			RightHandRing2			RightHandRing3			RightHandRing3_End			RightInHandPinky			RightHandPinky1			RightHandPinky2			RightHandPinky3			RightHandPinky3_End			LeftShoulder			LeftArm			LeftForeArm			LeftHand			LeftHandThumb1			LeftHandThumb2			LeftHandThumb3			LeftHandThumb3_End			LeftInHandIndex			LeftHandIndex1			LeftHandIndex2			LeftHandIndex3			LeftHandIndex3_End			LeftInHandMiddle			LeftHandMiddle1			LeftHandMiddle2			LeftHandMiddle3			LeftHandMiddle3_End			LeftInHandRing			LeftHandRing1			LeftHandRing2			LeftHandRing3			LeftHandRing3_End			LeftInHandPinky			LeftHandPinky1			LeftHandPinky2			LeftHandPinky3			LeftHandPinky3_End			
		X1	Y1	Z1	X2	Y2	Z2	X3	Y3	Z3	X4	Y4	Z4	X5	Y5	Z5	X6	Y6	Z6	X7	Y7	Z7	X8	Y8	Z8	X9	Y9	Z9	X10	Y10	Z10	X11	Y11	Z11	X12	Y12	Z12	X13	Y13	Z13	X14	Y14	Z14	X15	Y15	Z15	X16	Y16	Z16	X17	Y17	Z17	X18	Y18	Z18	X19	Y19	Z19	X20	Y20	Z20	X21	Y21	Z21	X22	Y22	Z22	X23	Y23	Z23	X24	Y24	Z24	X25	Y25	Z25	X26	Y26	Z26	X27	Y27	Z27	X28	Y28	Z28	X29	Y29	Z29	X30	Y30	Z30	X31	Y31	Z31	X32	Y32	Z32	X33	Y33	Z33	X34	Y34	Z34	X35	Y35	Z35	X36	Y36	Z36	X37	Y37	Z37	X38	Y38	Z38	X39	Y39	Z39	X40	Y40	Z40	X41	Y41	Z41	X42	Y42	Z42	X43	Y43	Z43	X44	Y44	Z44	X45	Y45	Z45	X46	Y46	Z46	X47	Y47	Z47	X48	Y48	Z48	X49	Y49	Z49	X50	Y50	Z50	X51	Y51	Z51	X52	Y52	Z52	X53	Y53	Z53	X54	Y54	Z54	X55	Y55	Z55	X56	Y56	Z56	X57	Y57	Z57	X58	Y58	Z58	X59	Y59	Z59	X60	Y60	Z60	X61	Y61	Z61	X62	Y62	Z62	X63	Y63	Z63	X64	Y64	Z64	X65	Y65	Z65	X66	Y66	Z66	X67	Y67	Z67	X68	Y68	Z68	X69	Y69	Z69	X70	Y70	Z70	X71	Y71	Z71	X72	Y72	Z72	

267	1.108	1921.0129	906.651	56.2195	1934.7852301696857	865.2349390055634	-16.722199752229944	1865.5625787321553	456.3851314391293	-70.51954098344098	1952.981641589545	98.00670555632003	-187.41866710628543	1880.2843177944942	17.881136235186855	-29.871192979150617	1913.7623647784606	919.1471075546033	141.1601460502379	1861.2243798479053	518.5553133644235	250.71007843585437	1775.5350526556815	88.49468343334549	291.5096994481463	1656.0837996314258	-0.5562226534746765	172.24287866940503	1891.049845495798	1036.6319296800373	4.796835262041177	1841.6602463248132	1109.261550564453	-36.359010420080814	1784.261098260179	1179.9854490829057	-79.36871473329387	1720.6643417725177	1239.2265519751622	-120.63892785114363	1652.0368203967864	1302.1636800853164	-164.0690736634039	1588.9163203374983	1359.7360510689082	-202.38291940329313	1464.4757968090182	1451.7392253206867	-237.9524260036196	1676.4639584001095	1268.0372640973353	-169.79319817539556	1669.546839020296	1221.646348756471	-232.38108743083484	1676.7025638764692	1061.4332444229997	-126.42253278163956	1648.9676595774047	995.7064908824553	-107.07151714456985	1658.6113149914672	1011.9054825192192	-119.42461008058746	1657.5909957036076	1011.2619486655466	-121.077743073407	1655.8121056336242	1007.9285277730302	-120.31502929192538	1653.4151813489398	1002.6813369805185	-118.04185450154347	1656.5520535243693	1004.035030184801	-114.33211029013933	1660.3445893007756	1001.790236176811	-115.57851160552084	1658.2530197279211	994.9602665955539	-113.0533625327977	1654.931915145677	990.3470521022708	-111.0836833881077	1650.8199576694828	986.2811214911771	-109.18370241859586	1653.2894702710478	996.0153290974016	-108.9218387345301	1655.2252198033987	989.4894697242709	-107.21209179696953	1652.4941968286887	980.9791306904104	-103.73449640139683	1648.272077061556	974.9060012283172	-101.0116052817321	1643.668177251066	970.2104433416449	-98.7642211265941	1650.9294887374474	990.4408737733124	-105.08985845037698	1650.7379821873894	979.8533818618771	-100.29605292871267	1647.8954820798083	971.3647931112973	-96.52930478511078	1643.5774956601758	964.9380409964998	-93.5121829067813	1639.1323603118628	960.2535234710153	-91.21393406440573	1647.7702613300614	983.8117756534236	-100.4624274574651	1645.7884706732648	970.128148744067	-93.28762609956362	1642.7918493386974	961.705921638608	-89.14437321467514	1639.2937849286186	956.2322152528712	-86.39851025853993	1635.1555488929025	951.6301414129	-84.04888912402885	1673.6985294328326	1295.4715256526863	-128.71988314694596	1687.1729386185282	1314.9127085006	-41.795768822144694	1738.0027364428772	1106.071467663377	-65.41366148178184	1697.3381813619767	961.1493113361709	-55.969331751221354	1689.7010732427084	976.5225941713841	-61.08195622865139	1689.6531413954308	971.0146393449343	-64.95316524782027	1691.0943718895403	963.823214364842	-67.07926323504866	1693.5573638941792	954.957342066648	-68.36423508372212	1693.8986215523105	967.1200050164225	-59.52440971464804	1695.7914028043076	958.5308195453892	-62.77481849391446	1699.1803719292461	946.0574167788471	-64.95130373500082	1701.0764134068943	938.1369384949664	-66.46944168025321	1702.5035250580056	931.4693481111227	-67.8373229439824	1697.9419323583827	957.9832681277932	-57.85741010472156	1701.9745372188545	944.665422565214	-60.12610464224927	1706.2025279264953	929.8686351429872	-62.27047842405826	1708.7443438689627	919.7438268912497	-63.991393831222844	1710.4294914286272	912.1716350934566	-65.4343086199129	1700.7392115466937	951.7896620768196	-56.594518873928564	1706.7492240351335	934.6015219379884	-57.52497899241739	1710.9697918091947	920.5130719205796	-59.15476588678229	1713.7059246488673	910.1141282372845	-60.68767616743084	1715.4251324963466	902.6945116851851	-61.984162453275964	1703.9952070631289	944.566676020312	-55.06220961311588	1711.4784981284872	924.4880931441843	-54.96460014550017	1715.6673801646448	911.4223318084897	-55.892365110303395	1718.0545680848174	902.9741951528499	-56.827959406696294	1719.8027920907632	895.9048962079887	-57.87139979357991
268	1.113	1921.0129	906.651	56.2195	1933.866204704183	864.9452798110176	-16.789749131158253	1864.6150174193792	456.0813372443996	-70.45776018866924	1952.614123101192	97.85838505756553	-187.60847432401246	1879.9009533017622	17.76967635683854	-30.04924928458012	1914.6161848491133	919.4311058782871	141.2475822595646	1862.1156925859918	518.8572142582998	250.8820327337317	1776.136357958397	88.80614944345116	291.43300152825645	1656.7708292310272	-0.3316981734136263	172.13948028437767	1891.3655605195397	1036.6683719211808	4.7149957057683345	1842.036829806199	1109.3776479395942	-36.38222622913977	1784.6601784094942	1180.1764069462622	-79.30879539555153	1721.0210112675973	1239.4623946141191	-120.45797769253014	1652.346965690743	1302.4436435246305	-163.75936808086436	1589.1924306644746	1360.0643917009318	-201.95202759782902	1464.7255307145022	1452.0692477346986	-237.42602267945117	1676.6375117785049	1268.1959053577455	-169.51491451882092	1669.3758451216834	1221.4485070672067	-232.03653202329215	1676.5341016644466	1062.8247220165742	-124.38288817323762	1645.3087292473974	998.9618812177212	-102.93856218452744	1655.046120904388	1015.3100207116124	-115.23295855061582	1654.1438822348514	1014.6266915934084	-116.81127463079054	1652.4235724332787	1011.2604188257761	-115.99195900905953	1650.0552554793878	1005.9814439982908	-113.66774719665874	1652.9014065273332	1007.4550819534405	-110.11790711599544	1656.6590731819497	1005.3551806888264	-111.2279295424069	1654.5927905936683	998.5178789728504	-108.61340796097035	1651.33657738454	993.833676940102	-106.60545488761628	1647.3115000413748	989.6641852658869	-104.68545909340493	1649.5780716376887	999.4112231545746	-104.70040262789936	1651.4469347469208	993.0136477318982	-102.85372325596512	1648.7356653646661	984.4915164060623	-99.27810501805715	1644.5880744088204	978.3309250454163	-96.50879369028807	1640.0774046488086	973.5211663685619	-94.23939087757165	1647.1753953625482	993.8170964840207	-100.86668212928308	1646.8849383990325	983.3306952906346	-95.94831595326623	1644.0517514858113	974.8277339806104	-92.09583413553	1639.8014553014132	968.3144472653019	-89.03377908444568	1635.4419932257904	963.5215250024879	-86.7147474746485	1643.9732019222215	987.1525108760782	-96.24208565182293	1641.8719253017557	973.5434435689195	-88.9543636932275	1638.8708745872225	965.1028784937196	-84.74253076699519	1635.416429105462	959.5627496074331	-81.96393342644399	1631.35077933672	954.8627425627703	-79.5959259986883	1674.1845409283187	1295.8464841459995	-128.46971425011154	1688.2454554696646	1315.8689450409336	-41.607196670445354	1739.5275487656002	1106.9423656289039	-63.30889014087309	1697.4559823536083	962.1690155167862	-52.364371669085386	1689.8154558671058	977.6600167501589	-57.34819060231491	1689.7681768331854	972.2338284742465	-61.06312483753845	1691.2338245582546	965.0954416127125	-63.0844227614587	1693.7376686253551	956.2704373734193	-64.28547530133278	1694.1067061139765	968.2586624889178	-55.79518175973717	1696.1911454786477	959.8175868360197	-58.86234913047144	1699.670083140541	947.4235684195203	-60.90111014229122	1701.5638406458143	939.5311291395257	-62.33896449160856	1702.9497961333443	932.8723765192061	-63.64399577326717	1698.2064517788526	959.1050210536108	-54.14503642935908	1702.456531655136	945.9225019933921	-56.244119679936816	1706.789464938899	931.2095987670091	-58.24101726649968	1709.3317748721286	921.1173082044724	-59.86641951837847	1710.9734676384062	913.5541416054543	-61.24121611797471	1701.039347694914	952.8959405104797	-52.898820575643455	1707.2770366813077	935.8163557710149	-53.69202866772021	1711.5956449619941	921.7980047049782	-55.19640785679721	1714.3357427922003	911.428821554144	-56.638850350677316	1716.0157432265714	904.016933603536	-57.87207760232887	1704.3258313415754	945.6488986149224	-51.39030722507588	1712.0389373591515	925.6559218617983	-51.1817302202151	1716.3155795128687	912.6411111913811	-52.01456191219699	1718.7101358568316	904.212174041637	-52.88682284377183	1720.4262063418496	897.1482803620107	-53.87575285557648
269	1.117	1921.0129	906.651	56.2195	1933.2176706369523	864.7170795777027	-16.882317547597044	1863.8964054349271	455.8450484607301	-70.39852698816706	1952.4576791584739	97.76906131435568	-187.7911422396981	1879.7489847624308	17.697518090928632	-30.2206225723625	1915.2231858399396	919.6558841021136	141.35357968939857	1862.777880367074	519.1005254365689	251.0822554618447	1776.5056239042503	89.0592842812635	291.37758332624753	1657.2240268551477	-0.1669148371477037	172.06023418601688	1891.568087821895	1036.692093001143	4.661292993418174	1842.2612203640272	1109.4557096669514	-36.373931319680075	1784.8817868702106	1180.3108290246446	-79.21287349366126	1721.2004955663442	1239.644566697715	-120.2371769039059	1652.4813358683425	1302.6731639513298	-163.40724531524953	1589.2925878428457	1360.341789522334	-201.4788871446263	1464.7942891353532	1452.3359522716137	-236.87255629395312	1676.634046314814	1268.3038276559992	-169.19581748868447	1668.6192505337103	1220.9505541090743	-231.28186399843648	1675.599424286928	1063.5613617710678	-122.29238901424338	1643.2913264725273	1001.5799401086576	-97.71555126309845	1653.1551221239374	1018.0816787832968	-109.97829270610498	1652.3420590884525	1017.338426808357	-111.519273234097	1650.6494011642967	1013.9253726093393	-110.6650463542208	1648.274671408914	1008.6030716717769	-108.30410536408769	1650.8922727450863	1010.2455956637568	-104.8251878485648	1654.561874400276	1008.2914205973528	-105.80946510504717	1652.4676717849245	1001.4333092028061	-103.12451768212682	1649.247309856137	996.6618944896484	-101.09917492936424	1645.2878013069694	992.3701178612442	-99.18259144395846	1647.479901368394	1002.1771138008697	-99.38862839624717	1649.2146943311927	995.9083870520161	-97.40898978055077	1646.4615391508573	987.3596769053795	-93.75444024599267	1642.3517251389123	981.0920078202536	-90.9631499453976	1637.9101314274233	976.1475421747031	-88.69699088914882	1645.015983965332	996.5631080447533	-95.54439934083629	1644.5505127908577	986.1785422099096	-90.49700015707388	1641.6693615246377	977.64823660701	-86.57380306731453	1637.4494171519966	971.0294488869595	-83.48952755566437	1633.1520252969144	966.1088164815595	-81.17306454595344	1641.7503387059344	989.8616449439105	-90.91335560747555	1639.447442554112	976.3274434374162	-83.50240879356008	1636.3908822658982	967.8580130307001	-79.23151945353524	1632.9502994914687	962.2375595645971	-76.43554173739656	1628.9348724656145	957.4224798860533	-74.06913526633659	1674.4951276971065	1296.1690892875622	-128.17718860806062	1689.1457099914455	1316.769273071632	-41.374242412571064	1741.1949828400734	1107.8236203109007	-60.94479159811965	1697.877185473725	963.1859391520982	-48.366274659866825	1690.3241431698023	978.8669783390814	-53.152412615925	1690.2676941387522	973.6093897070721	-56.52211754226043	1691.7228371759143	966.5756459338808	-58.305207450922936	1694.2143948798503	957.826950578496	-59.309568921861576	1694.6186643774895	969.438371216304	-51.60149425324374	1696.7830922144938	961.1940285696338	-54.324635096537364	1700.2641407585966	948.9311255888373	-56.05824378256417	1702.1269688752004	941.1121573534549	-57.295197184371396	1703.4655746686522	934.5087909718287	-58.42639286734766	1698.7018686847748	960.2428787236461	-49.96621055203892	1703.0210319555104	947.2296099575401	-51.73779735987108	1707.353759650542	932.6536106520269	-53.40470669207576	1709.857548730926	922.6470026201713	-54.78916723403239	1711.4468467147703	915.1430006451847	-55.97445343919253	1701.521569095034	953.9992238106294	-48.73988695353769	1707.8112740699635	937.0413490835779	-49.25865455325228	1712.1270248493324	923.1357558578285	-50.47898597103638	1714.8285411296897	912.8457290693045	-51.69091257843965	1716.4586029917914	905.487815859609	-52.746854253059766	1704.7863285905646	946.7065199340896	-47.259435940077665	1712.5355647301278	926.797136260949	-46.81838523130598	1716.8055080514255	913.8618343715829	-47.430526284946296	1719.1697902351111	905.4854184183604	-48.13792088960709	1720.8403920761057	898.4663362930114	-48.97168401568489
270	1.121	1921.0129	906.651	56.2195	1932.8249771817698	864.5437683132375	-16.993324868825596	1863.4915335863589	455.6496613631402	-70.32053182283127	1952.5882576152271	97.7053929499197	-187.93337130496175	1879.9156419370083	17.624501513434737	-30.35016442083354	1915.6012561547973	919.8294199665177	141.4733998342255	1863.2214984928517	519.2945622201471	251.30813817293694	1776.6552744601129	89.263276242013	291.34554329756537	1657.4582877656944	-0.05285640178309861	172.00501285296562	1891.6434483350517	1036.6969943711902	4.62744955827615	1842.3176868500864	1109.4863709171336	-36.34586279580948	1784.9093501700663	1180.3761515799572	-79.09674243604819	1721.1860890660455	1239.7573184927417	-119.9968991132711	1652.4224995135805	1302.8336394418782	-163.03618915956963	1589.196738331628	1360.5454314709282	-200.9890153054286	1464.6625637444631	1452.5315783320978	-236.27815304203128	1676.4369511741402	1268.342433967126	-168.8577205868025	1667.2503676548608	1220.1826039951127	-230.0722541462256	1673.913934217719	1063.3832204848325	-120.35604969297151	1642.4977657543056	1002.9658815379867	-92.58560247664724	1652.4678374338516	1019.6088604354347	-104.84600163428516	1651.7047953830393	1018.8221159523936	-106.33589357279843	1650.0156377169706	1015.3769277932417	-105.43073274984384	1647.6170236091416	1010.0262534738584	-103.0141908858896	1650.0988715451406	1011.799961093299	-99.63706143673643	1653.6678638267583	1010.0060139432379	-100.4778992724216	1651.5225838822425	1003.1480079302274	-97.69613692544536	1648.3141929563608	998.3045888520804	-95.63589399735226	1644.3940897844886	993.9046011863734	-93.70748302907188	1646.605684951072	1003.7155818607557	-94.1638658514654	1648.1986233962693	997.5945669054171	-92.024502184546	1645.3794202870597	989.0432174572954	-88.25994266253389	1641.279102987176	982.6873546961109	-85.42445549614602	1636.8782174380992	977.6238430520425	-83.14433313920726	1644.0868180741502	998.0874051968749	-90.29725461652326	1643.4452991126936	987.8262828155644	-85.08681323952058	1640.4962674780513	979.2906153032679	-81.06352131520096	1636.2800039762662	972.5851319855811	-77.93437600988096	1632.0182964264534	967.551793617446	-75.6037303536562	1640.764043854993	991.355903812619	-85.6458238325607	1638.263025064102	977.9203182419853	-78.07218522231065	1635.1367907768115	969.4412680759834	-73.7152921806992	1631.6914819846138	963.7550011302546	-70.88375673538687	1627.7033991314574	958.8385990460026	-68.50315765260086	1674.6124948942042	1296.4226712100249	-127.86542929095319	1689.858913431725	1317.6033777567825	-41.12377236662373	1742.5671281762432	1108.6398198968989	-58.99187782394465	1698.1673754072149	964.1250232774053	-44.78802547945387	1690.7425029839346	980.0220756830045	-49.354986691593254	1690.695773796358	974.9674377885814	-52.30061298334962	1692.1420779832838	968.0585868352533	-53.788031396565636	1694.6129105062662	959.3999417758637	-54.54561447518542	1695.00169959715	970.5537286007176	-47.79960868907407	1697.2116713295027	962.52048730784	-50.106599186277684	1700.6769951185354	950.407798323995	-51.46045369697484	1702.5132048462592	942.6810484978463	-52.44440141706791	1703.8184142577043	936.1532162424419	-53.35477091296158	1699.0386066241922	961.3063287852807	-46.17359472039121	1703.3771600428545	948.4708813040489	-47.544321772982194	1707.6864150892166	934.0512644176998	-48.79930202855819	1710.1550575147912	924.1522998094421	-49.87970177065249	1711.7063409017878	916.7291945995593	-50.82393862365255	1701.824822939403	955.0205127717367	-44.9652717150385	1708.103977598736	938.1851146526087	-45.14283957638662	1712.3927787895686	924.4078508610479	-46.00727066163029	1715.056943562415	914.2174189683433	-46.927568611314044	1716.649630683945	906.9335596804224	-47.75765658109191	1705.0466115972556	947.673882899602	-43.51108098688225	1712.760996905844	927.8433234278181	-42.775921609484826	1716.999278016399	914.9978057013346	-43.10944902266057	1719.3314400762902	906.687758258873	-43.60721421870505	1720.9661212591482	899.7306630945047	-44.242679828961705
